{"title":"My Little Pony Equestria Girls: Legend of Everfree [HDTV] Eng","uid":15896788,"size":2279484019,"categoryP":"video","categoryS":"movies","magnet":"?xt=urn:btih:a65cb08bf45d66f13e942ce84bcc8eafa87052ac&amp;dn=My+Little+Pony+Equestria+Girls%3A+Legend+of+Everfree+%5BHDTV%5D+Eng&amp;tr=udp%3A%2F%2Ftracker.leechers-paradise.org%3A6969&amp;tr=udp%3A%2F%2Fzer0day.ch%3A1337&amp;tr=udp%3A%2F%2Fopen.demonii.com%3A1337&amp;tr=udp%3A%2F%2Ftracker.coppersurfer.tk%3A6969&amp;tr=udp%3A%2F%2Fexodus.desync.com%3A6969","seeders":36,"leechers":22,"uploader":null,"files":1,"time":1474815935,"description":"There might be a glitch or two but whatever. Want perfection? Be patient or do it yourself. At least it's in English.\r\n\r\nVideo\r\nID                                       : 1\r\nFormat                                   : AVC\r\nFormat/Info                              : Advanced Video Codec\r\nFormat profile                           :   \r\nFormat settings, CABAC                   : Yes\r\nFormat settings, ReFrames                : 2 frames\r\nFormat settings, GOP                     : M=3, N=25\r\nMuxing mode                              : Container   \r\nCodec ID                                 : avc1\r\nCodec ID/Info                            : Advanced Video Coding\r\nDuration                                 : 1 h 12 min\r\nBit rate                                 : 4 001 kb/s\r\nWidth                                    : 1 920 pixels\r\nHeight                                   : 1 080 pixels\r\nDisplay aspect ratio                     : 16:9\r\nFrame rate mode                          : Variable\r\nFrame rate                               : 29.970 (29970/1000) FPS\r\nMinimum frame rate                       : 5.994 FPS\r\nMaximum frame rate                       : 29.971 FPS\r\nColor space                              : YUV\r\nChroma subsampling                       : 4:2:0\r\nBit depth                                : 8 bits\r\nScan type                                : Progressive\r\nBits/(Pixel*Frame)                       : 0.064\r\nStream size                              : 2.02 GiB (95%)\r\n\r\nAudio\r\nID                                       : 2\r\nFormat                                   : AAC\r\nFormat/Info                              : Advanced Audio Codec\r\nFormat profile                           : LC\r\nCodec ID                                 : 40\r\nDuration                                 : 1 h 12 min\r\nBit rate mode                            : Constant\r\nBit rate                                 : 192 kb/s\r\nChannel(s)                               : 2 channels\r\nChannel positions                        : Front: L R\r\nSampling rate                            : 48.0 kHz\r\nFrame rate                               : 46.875 FPS (1024 spf)\r\nCompression mode                         : Lossy\r\nStream size                              : 99.1 MiB (5%)\r\nLanguage                                 : unk\r\nDefault                                  : Yes\r\nAlternate group                          : 1","torrent":{"xt":"urn:btih:a65cb08bf45d66f13e942ce84bcc8eafa87052ac","amp;dn":"My+Little+Pony+Equestria+Girls%3A+Legend+of+Everfree+%5BHDTV%5D+Eng","amp;tr":["udp%3A%2F%2Ftracker.leechers-paradise.org%3A6969","udp%3A%2F%2Fzer0day.ch%3A1337","udp%3A%2F%2Fopen.demonii.com%3A1337","udp%3A%2F%2Ftracker.coppersurfer.tk%3A6969","udp%3A%2F%2Fexodus.desync.com%3A6969"],"infoHash":"a65cb08bf45d66f13e942ce84bcc8eafa87052ac","infoHashBuffer":{"type":"Buffer","data":[166,92,176,139,244,93,102,241,62,148,44,232,75,204,142,175,168,112,82,172]},"announce":[],"urlList":[]}}